<?xml version="1.0" encoding="utf-8"?>
<!-- Generator: Adobe Illustrator 16.0.0, SVG Export Plug-In . SVG Version: 6.00 Build 0)  -->
<!DOCTYPE svg PUBLIC "-//W3C//DTD SVG 1.1//EN" "http://www.w3.org/Graphics/SVG/1.1/DTD/svg11.dtd">
<svg version="1.1" id="Capa_1" xmlns="http://www.w3.org/2000/svg" xmlns:xlink="http://www.w3.org/1999/xlink" x="0px" y="0px"
	 width="152.562px" height="139.85px" viewBox="0 0 152.562 139.85" enable-background="new 0 0 152.562 139.85"
	 xml:space="preserve">
<g>
	<path fill-rule="evenodd" clip-rule="evenodd" fill="#FFFFFF" d="M9.129,98.127c0.431-0.773,0.743-1.523,1.218-2.148
		c1.801-2.374,3.632-4.726,5.502-7.045c0.708-0.879,1.004-1.706,0.315-2.715c-0.228-0.333-0.491-0.701-0.548-1.08
		c-0.589-3.855-3.298-4.688-6.632-4.889c-2.083-0.123-4.147-0.59-6.224-0.886c-1.922-0.277-2.794-1.311-2.759-3.309
		c0.074-4.334,0.059-8.674,0.006-13.009c-0.025-2.059,0.878-3.131,2.909-3.406c3.149-0.426,6.283-0.953,9.434-1.374
		c1.258-0.168,1.773-0.861,2.482-1.917c2.411-3.592,1.157-6.284-1.465-8.961c-1.225-1.252-2.209-2.739-3.348-4.081
		c-1.174-1.38-1.437-2.782-0.088-4.147c3.373-3.415,6.76-6.816,10.199-10.164c1.489-1.453,3.033-1.402,4.676-0.011
		c2.326,1.968,4.81,3.745,7.162,5.684c0.855,0.706,1.599,0.88,2.521,0.262c0.223-0.149,0.475-0.311,0.73-0.346
		c3.937-0.565,4.526-3.348,4.694-6.663c0.114-2.278,0.725-4.533,1.132-6.795c0.286-1.594,1.302-2.272,2.875-2.269
		c4.608,0.011,9.216,0.006,13.824,0.004c1.777,0,2.711,0.831,2.953,2.642c0.447,3.351,0.99,6.688,1.563,10.021
		c0.102,0.585,0.399,1.381,0.85,1.617c1.488,0.781,3.06,1.438,4.661,1.952c0.484,0.156,1.271-0.168,1.744-0.513
		c2.687-1.945,5.333-3.948,7.967-5.964c1.255-0.962,2.539-1.106,3.664,0.019c3.445,3.443,6.837,6.94,10.211,10.452
		c1.344,1.396,1.254,2.805-0.005,4.321c-1.861,2.237-3.549,4.617-5.377,6.88c-0.764,0.945-1.082,1.814-0.326,2.881
		c0.154,0.215,0.28,0.482,0.322,0.741c0.668,4.02,3.42,5.086,7.041,5.213c2.015,0.068,4.017,0.539,6.025,0.829
		c1.729,0.249,2.656,1.185,2.651,2.989c-0.012,4.54,0.004,9.081-0.007,13.621c-0.003,1.705-0.694,2.797-2.549,3.047
		c-3.215,0.437-6.407,1.023-9.621,1.467c-1.309,0.18-2.376,0.494-2.584,2.016c-0.026,0.193-0.121,0.396-0.24,0.556
		c-2.236,2.97-1.103,5.365,1.154,7.716c1.449,1.509,2.669,3.24,3.995,4.868c0.965,1.186,1.283,2.454,0.126,3.644
		c-3.393,3.494-6.804,6.97-10.277,10.381c-1.508,1.482-3.11,1.549-4.836,0.076c-2.315-1.979-4.733-3.844-7.205-5.623
		c-0.564-0.405-1.563-0.454-2.3-0.324c-4.156,0.734-5.7,3.343-5.605,7.466c0.049,2.119-0.69,4.256-1.084,6.383
		c-0.294,1.591-1.301,2.272-2.875,2.269c-4.608-0.011-9.216-0.004-13.825-0.006c-1.777,0-2.7-0.844-2.94-2.654
		c-0.452-3.417-1.005-6.821-1.584-10.22c-0.088-0.517-0.406-1.207-0.82-1.417c-1.503-0.757-3.064-1.426-4.665-1.941
		c-0.483-0.156-1.267,0.155-1.736,0.495c-2.581,1.861-5.153,3.739-7.634,5.727c-1.611,1.292-3.005,1.35-4.454-0.149
		c-3.247-3.354-6.525-6.677-9.739-10.063C9.853,99.716,9.578,98.914,9.129,98.127z M50.784,49.344
		c-11.321,0.031-20.304,9.099-20.255,20.44c0.049,11.312,9.145,20.295,20.482,20.233c11.179-0.061,20.164-9.132,20.167-20.36
		C71.182,58.371,62.086,49.311,50.784,49.344z"/>
	<path fill-rule="evenodd" clip-rule="evenodd" fill="#FFFFFF" d="M111.907,58.391c-3.145-1.817-6.11-3.568-9.116-5.243
		c-1.022-0.569-1.308-1.239-0.88-2.316c1.095-2.76,2.124-5.547,3.236-8.3c0.802-1.984-1.234-5.448-3.373-5.738
		c-2.809-0.382-5.61-0.829-8.412-1.267c-1.318-0.207-1.943-0.871-1.884-2.339c0.114-2.771,0.11-5.554,0.003-8.326
		c-0.058-1.452,0.531-2.139,1.868-2.351c2.668-0.42,5.328-0.906,8.005-1.234c2.691-0.329,4.657-3.63,3.63-6.155
		c-1.042-2.558-1.951-5.17-2.985-7.732c-0.5-1.235-0.237-1.973,0.97-2.612c2.448-1.298,4.887-2.633,7.205-4.144
		c1.491-0.971,2.439-0.61,3.417,0.627c1.678,2.124,3.412,4.202,5.104,6.313c1.361,1.704,5.308,1.668,6.687-0.043
		c1.824-2.266,3.695-4.49,5.519-6.754c0.72-0.896,1.438-0.995,2.438-0.399c2.612,1.558,5.253,3.07,7.925,4.522
		c1.069,0.58,1.216,1.279,0.804,2.329c-1.036,2.635-1.977,5.309-3.044,7.931c-1.021,2.507,0.973,5.794,3.68,6.124
		c2.68,0.324,5.339,0.815,8.006,1.237c1.36,0.213,1.889,0.955,1.833,2.379c-0.103,2.705-0.14,5.422,0.011,8.123
		c0.094,1.684-0.645,2.333-2.124,2.557c-2.604,0.394-5.197,0.874-7.81,1.188c-2.577,0.308-4.603,3.609-3.639,5.982
		c1.094,2.688,2.071,5.421,3.129,8.125c0.424,1.086,0.105,1.731-0.917,2.293c-2.665,1.467-5.307,2.979-7.892,4.583
		c-1.057,0.657-1.724,0.374-2.393-0.446c-1.798-2.199-3.624-4.377-5.377-6.609c-1.595-2.029-5.457-2.019-7.066,0.031
		c-1.671,2.127-3.389,4.218-5.111,6.303C112.972,57.488,112.477,57.858,111.907,58.391z M111.855,28.9
		c-0.041,5.637,4.471,10.245,10.073,10.285c5.596,0.042,10.206-4.513,10.241-10.122c0.035-5.442-4.543-10.127-9.977-10.21
		C116.64,18.769,111.895,23.38,111.855,28.9z"/>
	<path fill-rule="evenodd" clip-rule="evenodd" fill="#FFFFFF" d="M131.868,139.85c-2.193-2.697-4.346-5.29-6.436-7.932
		c-1.438-1.818-5.342-1.873-6.79-0.071c-1.864,2.317-3.777,4.597-5.654,6.905c-0.666,0.82-1.323,0.881-2.245,0.323
		c-2.6-1.575-5.232-3.107-7.9-4.566c-1.126-0.617-1.342-1.342-0.887-2.484c1.052-2.632,2.003-5.304,3.074-7.929
		c0.978-2.393-1.015-5.686-3.599-6.003c-2.679-0.328-5.339-0.813-8.009-1.225c-1.437-0.222-2.022-0.958-1.945-2.499
		c0.129-2.634,0.138-5.285-0.002-7.918c-0.091-1.726,0.596-2.469,2.215-2.693c2.541-0.351,5.06-0.855,7.608-1.155
		c2.724-0.321,4.732-3.588,3.712-6.094c-1.091-2.686-2.157-5.39-3.042-8.146c-0.179-0.555,0.298-1.705,0.818-2.035
		c2.565-1.634,5.267-3.046,7.875-4.612c1.007-0.606,1.741-0.485,2.455,0.384c1.756,2.146,3.561,4.254,5.276,6.433
		c1.768,2.246,5.556,2.193,7.331-0.097c1.615-2.083,3.362-4.067,4.985-6.146c0.89-1.143,1.743-1.162,2.931-0.437
		c2.421,1.479,4.891,2.888,7.393,4.225c1.181,0.629,1.522,1.354,1.015,2.605c-1.09,2.688-2.084,5.414-3.166,8.104
		c-0.801,1.987,1.214,5.466,3.348,5.766c2.741,0.383,5.472,0.83,8.211,1.235c1.492,0.22,2.204,0.894,2.115,2.567
		c-0.147,2.7-0.116,5.417-0.008,8.121c0.058,1.438-0.505,2.159-1.847,2.371c-2.735,0.433-5.465,0.906-8.211,1.256
		c-2.428,0.31-4.447,3.66-3.539,5.908c1.113,2.753,2.188,5.522,3.142,8.333c0.175,0.519-0.107,1.587-0.524,1.845
		C138.474,136.102,135.293,137.875,131.868,139.85z M132.167,110.229c-0.03-5.43-4.677-10.04-10.129-10.052
		c-5.548-0.012-10.215,4.663-10.182,10.199c0.034,5.618,4.627,10.168,10.229,10.133
		C127.678,120.472,132.201,115.863,132.167,110.229z"/>
</g>
</svg>
