<?xml version="1.0" encoding="utf-8"?>
<!-- Generator: Adobe Illustrator 16.0.0, SVG Export Plug-In . SVG Version: 6.00 Build 0)  -->
<!DOCTYPE svg PUBLIC "-//W3C//DTD SVG 1.1//EN" "http://www.w3.org/Graphics/SVG/1.1/DTD/svg11.dtd">
<svg version="1.1" id="Capa_1" xmlns="http://www.w3.org/2000/svg" xmlns:xlink="http://www.w3.org/1999/xlink" x="0px" y="0px"
	 width="182.122px" height="183.683px" viewBox="0 0 182.122 183.683" enable-background="new 0 0 182.122 183.683"
	 xml:space="preserve">
<g>
	<path fill="#FFFFFF" d="M92.349,165.377c-3.568,0-7.209-0.256-10.84-0.777c-10.577-1.43-20.538-5.101-29.576-10.854
		c-0.844-0.573-1.361-0.646-2.241-0.322c-6.774,2.188-13.506,4.361-20.399,6.543l-8.254,2.623l2.778-8.283
		c2.108-6.326,4.115-12.377,6.28-18.452c0.514-1.509,0.379-2.524-0.561-3.868c-9.839-14.254-14.103-30.453-12.686-48.134
		c1.76-21.878,11.575-39.935,29.138-53.629c14.817-11.56,32.106-16.824,51.333-15.579c10.593,0.68,20.59,3.532,29.764,8.462
		c4.751,2.569,9.233,5.693,13.813,9.476c4.31,3.611,7.908,7.355,11.012,11.454c6.873,9.034,11.526,19.171,13.892,30.116
		c2.55,12.06,2.234,24.021-0.949,35.52c-2.734,9.912-7.387,18.967-13.707,26.928c-4.837,6.035-9.364,10.451-14.333,13.971
		C122.973,160.375,108.014,165.377,92.349,165.377z M50.585,151.729c0.728,0,1.413,0.211,2.178,0.679
		c8.857,5.608,18.59,9.246,28.96,10.695c3.575,0.494,7.146,0.699,10.626,0.699l0,0c15.342,0,29.998-4.838,43.553-14.512
		c4.837-3.414,9.305-7.77,14.017-13.668c6.214-7.756,10.742-16.658,13.437-26.359c3.124-11.289,3.433-22.999,0.909-34.781
		c-2.326-10.848-6.761-20.549-13.582-29.484c-3.051-4.02-6.583-7.703-10.808-11.216c-4.462-3.763-8.884-6.781-13.516-9.278
		c-8.989-4.838-18.762-7.651-29.164-8.277c-18.794-1.213-35.741,3.895-50.258,15.229C29.731,44.873,20.113,62.566,18.387,83.938
		c-1.394,17.352,2.794,33.194,12.399,47.145c1.232,1.76,1.457,3.308,0.774,5.292c-2.145,6.082-4.158,12.093-6.248,18.451
		l-1.809,5.352l5.315-1.68c6.893-2.182,13.655-4.316,20.363-6.558C49.692,151.782,50.127,151.729,50.585,151.729z M115.994,132.389
		L115.994,132.389c-4.119,0-7.928-1.306-11.612-2.564c-1.126-0.402-2.3-0.764-3.466-1.113c-9.895-3.019-19.075-8.488-28.008-16.811
		c-6.017-5.576-10.811-11.975-14.692-17.425c-3.371-4.851-7.114-10.695-8.956-17.76c-0.458-1.614-0.557-3.275-0.686-4.692
		c0-0.389-0.049-0.783-0.069-1.12c0.079-6.326,1.766-11.552,5.206-16.481c2.718-3.783,6.353-5.588,11.447-5.588
		c0.972,0,1.99,0.078,3.104,0.151c2.042,0.283,3.038,1.989,3.667,3.46c1.604,3.756,3.173,7.459,4.729,11.256l1.568,3.775
		c0.056,0.112,0.089,0.25,0.125,0.375c2.461,3.605,0.784,6.736-1.167,9.306c-1.212,1.595-2.573,3.077-4.059,4.726
		c-0.867,0.975-0.952,1.838-0.303,2.972c7.13,12.191,17.272,20.877,30.077,25.826c1.18,0.468,2.043,0.224,2.939-0.856l0.119-0.152
		c2.089-2.504,4.257-5.094,6.3-7.763c0.995-1.292,1.951-2.346,3.526-2.346c0.652,0,1.325,0.157,2.26,0.566
		c6.346,2.524,12.363,5.622,18.175,8.626c2.511,1.325,2.089,3.776,1.792,5.41l-0.099,0.627c-0.672,4.322-1.47,8.086-4.851,10.82
		c-5.16,4.139-10.129,6.287-15.585,6.715C116.963,132.389,116.475,132.389,115.994,132.389z M65.159,50.402
		c-4.557,0-7.803,1.555-10.155,4.969c-3.262,4.633-4.876,9.563-4.972,15.467c0.053,0.27,0.066,0.658,0.096,1.061
		c0.105,1.371,0.224,2.939,0.632,4.441c1.799,6.808,5.437,12.508,8.719,17.213c3.865,5.418,8.557,11.691,14.472,17.188
		c8.778,8.158,17.767,13.549,27.401,16.475c1.199,0.369,2.373,0.725,3.552,1.16c3.704,1.238,7.216,2.444,11.091,2.444l0,0
		c0.448,0,0.903-0.026,1.357-0.053c5.173-0.415,9.846-2.419,14.742-6.366c2.959-2.392,3.677-5.852,4.284-9.852l0.079-0.666
		c0.356-1.838,0.422-3.004-0.962-3.709c-5.786-3.006-11.756-6.104-18.017-8.613c-0.738-0.277-1.298-0.441-1.694-0.441
		c-0.725,0-1.252,0.414-2.3,1.759c-2.069,2.63-4.231,5.278-6.32,7.776l-0.158,0.211c-1.278,1.509-2.88,1.957-4.659,1.246
		C89.169,107.057,78.8,98.173,71.476,85.639c-1.015-1.7-0.821-3.334,0.498-4.805c1.493-1.627,2.797-3.057,3.967-4.625
		c1.978-2.584,2.896-4.864,1.098-7.467c-0.145-0.225-0.188-0.461-0.224-0.587l-1.605-3.882c-1.535-3.729-3.11-7.512-4.712-11.229
		c-0.715-1.648-1.394-2.359-2.412-2.484C67.037,50.468,66.059,50.402,65.159,50.402z"/>
	<path fill-rule="evenodd" clip-rule="evenodd" fill="#FFFFFF" d="M0.485,181.503c-0.804-0.837-0.409-1.463-0.221-2.069
		c4.702-13.904,9.361-27.764,14.023-41.642c0.498-1.417,0.398-2.688-0.405-4.093c-5.707-10.247-9.397-21.207-10.808-32.818
		c-2.02-17.028,0.56-33.305,7.756-48.924c5.289-11.46,12.735-21.292,22.136-29.576C43.817,12.76,56.341,6.164,70.46,2.65
		c5.951-1.463,12.01-2.24,18.152-2.55c15.124-0.718,29.431,2.412,43.033,8.956c6.827,3.248,13.127,7.427,18.893,12.376
		c7.196,6.247,13.371,13.278,18.333,21.404c6.069,9.97,10.05,20.726,12.06,32.225c1.187,6.887,1.417,13.806,0.995,20.772
		c-0.626,10.135-3.005,19.928-7.005,29.338c-3.579,8.316-8.382,15.869-14.208,22.809c-6.418,7.631-14.063,13.983-22.65,19.045
		c-8.672,5.133-17.938,8.777-27.816,10.787c-8.422,1.74-16.939,2.143-25.536,1.438c-9.223-0.732-18.073-2.92-26.61-6.393
		c-2.359-0.988-4.633-2.05-6.923-3.17c-1.206-0.6-2.343-0.777-3.591-0.355c-5.73,1.838-11.467,3.644-17.193,5.469
		c-8.936,2.854-17.833,5.754-26.769,8.587c-0.854,0.276-1.766,0.455-2.804,0.086c0.465-0.712,1.147-0.751,1.688-0.903
		c14.906-4.863,29.819-9.635,44.762-14.451c1.236-0.429,2.284-0.363,3.509,0.342c9.457,5.174,19.638,8.073,30.301,9.596
		c4.804,0.646,9.654,0.561,14.514,0.436c15.523-0.416,29.797-4.996,43.029-13.049c9.114-5.588,16.897-12.606,23.441-21.035
		c5.535-7.059,9.839-14.854,13.035-23.296c3.144-8.29,4.745-16.798,5.483-25.608c0.501-5.799,0.079-11.5-0.573-17.227
		c-1.595-13.892-6.847-26.399-14.333-38.104c-2.32-3.637-4.903-7.215-7.941-10.194c-2.998-3.044-6.142-5.904-9.476-8.58
		c-4.923-3.968-10.056-7.506-15.73-10.438c-6.84-3.525-13.964-6.175-21.529-7.809C102.985,1.451,94.91,0.924,86.791,1.34
		C73.986,2.045,61.907,5.426,50.549,11.389c-6.771,3.625-12.936,8.041-18.587,13.24c-8.458,7.742-15.111,16.837-20.125,27.164
		c-4.132,8.54-6.663,17.555-7.833,26.959c-0.596,5.146-0.854,10.268-0.596,15.4c0.596,14.004,4.283,27.111,11.331,39.225
		c0.903,1.627,1.164,2.998,0.544,4.83c-4.804,13.911-9.457,27.83-14.172,41.748C0.936,180.383,0.742,180.831,0.485,181.503z"/>
	<path fill-rule="evenodd" clip-rule="evenodd" fill="#FFFFFF" d="M49.28,70.838c0.099-6.168,1.796-11.275,5.071-15.955
		c3.512-4.969,8.432-5.693,13.842-5.08c1.618,0.171,2.441,1.549,3.031,2.932c2.151,4.982,4.214,10.011,6.264,15.013
		c0.109,0.178,0.089,0.408,0.178,0.534c2.165,3.137,0.837,5.845-1.094,8.401c-1.262,1.647-2.623,3.163-4.003,4.673
		c-1.114,1.238-1.216,2.497-0.395,3.934c7.137,12.198,17.189,21.01,30.449,26.116c1.601,0.62,2.794,0.132,3.789-1.041
		c2.175-2.643,4.363-5.292,6.452-7.948c1.621-2.102,2.484-2.59,4.89-1.613c6.228,2.49,12.172,5.607,18.116,8.698
		c2.254,1.153,1.529,3.36,1.271,5.173c-0.566,3.809-1.271,7.678-4.554,10.326c-4.468,3.599-9.285,6.083-15.203,6.538
		c-5.833,0.441-10.92-1.983-16.231-3.599c-10.639-3.223-19.667-9.146-27.724-16.613c-5.565-5.173-10.198-11.137-14.573-17.312
		c-3.806-5.431-7.134-11.065-8.847-17.497C49.475,74.508,49.435,72.399,49.28,70.838z"/>
</g>
</svg>
